<svg width="55" height="55" viewBox="0 0 55 55" fill="none" xmlns="http://www.w3.org/2000/svg">
<g clip-path="url(#clip0_708_204)">
<path d="M45.386 29.0698C44.9439 29.0698 44.5856 29.4281 44.5856 29.8702C44.5856 30.4306 44.1297 30.8865 43.5693 30.8865C43.009 30.8865 42.553 30.4306 42.553 29.8702C42.553 29.428 42.1946 29.0698 41.7525 29.0698C41.3105 29.0698 40.9521 29.4281 40.9521 29.8702C40.9521 31.3133 42.1263 32.4873 43.5693 32.4873C45.0123 32.4873 46.1864 31.3132 46.1864 29.8702C46.1864 29.4279 45.828 29.0698 45.386 29.0698Z" fill="white"/>
<path d="M52.8993 29.2005L50.6464 28.4788C50.3579 28.3863 50.1305 28.156 50.0382 27.8626C49.5634 26.353 48.8469 24.9358 47.9085 23.6502C47.4809 23.0642 47.0053 22.5046 46.4858 21.9719C46.8182 20.5139 46.9989 18.8638 46.9755 17.4382C46.942 15.3988 46.5344 14.2027 45.7296 13.7811C45.2962 13.5538 43.977 12.8633 36.837 16.1317C36.6679 16.2091 36.51 16.3044 36.3638 16.4135C35.8825 16.2842 35.3905 16.1645 34.8955 16.0571C34.8358 16.0441 34.7744 16.0326 34.7143 16.0199C35.2929 14.756 35.6308 13.3832 35.6942 11.9661C35.714 11.5244 35.3721 11.1504 34.9304 11.1307C34.4898 11.1088 34.1146 11.4528 34.095 11.8945C33.9906 14.2246 33.0241 16.4169 31.3734 18.0677C30.3872 19.0539 29.2324 19.7703 28.0017 20.2215C25.8673 19.922 23.6933 19.922 21.5589 20.2215C20.3281 19.7703 19.1734 19.0539 18.1872 18.0677C16.4261 16.3066 15.4562 13.9651 15.4562 11.4746C15.4562 8.98388 16.4261 6.64252 18.1872 4.88144C19.9482 3.12026 22.2898 2.15035 24.7803 2.15035C27.2708 2.15035 29.6123 3.12026 31.3734 4.88144C32.0811 5.58914 32.6659 6.39673 33.1116 7.28157C33.3105 7.67645 33.7918 7.83543 34.1866 7.63649C34.5815 7.43776 34.7403 6.9564 34.5415 6.56163C34.0191 5.52404 33.3341 4.57797 32.5055 3.74932C30.4421 1.68585 27.6985 0.549438 24.7804 0.549438C21.8623 0.549438 19.1187 1.68585 17.0553 3.74932C14.9918 5.8129 13.8554 8.55634 13.8554 11.4745C13.8554 14.3926 14.9918 17.1361 17.0553 19.1996C17.6505 19.7948 18.298 20.3067 18.983 20.7355C18.9832 20.7355 18.9834 20.7354 18.9836 20.7354C18.4859 20.8647 17.992 21.01 17.5035 21.1733C17.0843 21.3134 16.858 21.7669 16.9982 22.1862C17.1383 22.6055 17.5919 22.8317 18.0111 22.6917C22.3763 21.2323 27.1845 21.2323 31.5497 22.6917C31.6339 22.7198 31.7194 22.7331 31.8035 22.7331C32.1384 22.7331 32.4505 22.5213 32.5626 22.1862C32.7028 21.767 32.4765 21.3134 32.0573 21.1733C31.5688 21.01 31.0749 20.8646 30.5772 20.7354C30.5774 20.7354 30.5776 20.7355 30.5779 20.7355C31.2629 20.3067 31.9103 19.7948 32.5055 19.1996C33.0321 18.673 33.4969 18.098 33.9005 17.4869C34.1212 17.5297 34.3402 17.5746 34.556 17.6215C34.8435 17.6839 35.1296 17.7509 35.4132 17.8213C35.4043 17.8561 35.3952 17.8908 35.3878 17.9261C34.9974 19.7786 35.0228 21.417 35.4631 22.7955C35.8588 24.0347 36.5731 25.0385 37.5857 25.7794C38.7793 26.6525 40.2203 27.0297 41.5255 27.0297C42.5079 27.0297 43.4136 26.8159 44.0787 26.4392C44.8311 26.013 45.4615 25.1151 45.9604 23.767C46.1911 24.0362 46.4097 24.3119 46.6157 24.5942C47.4511 25.7387 48.0889 27 48.5113 28.343C48.7593 29.1318 49.3751 29.7525 50.1583 30.0036L52.4111 30.7252C53.0023 30.9146 53.3994 31.4587 53.3994 32.0794V35.815C53.3994 36.4357 53.0023 36.9797 52.4111 37.1691L48.7815 38.3318C48.2007 38.5179 47.7093 38.917 47.3976 39.4556C45.9716 41.9201 43.7296 43.9595 40.7335 45.5172C40.3874 45.6974 40.1476 46.0195 40.0755 46.4013L38.9129 52.5569C38.8808 52.7265 38.7322 52.8495 38.5596 52.8495H34.7798C34.6071 52.8495 34.4586 52.7264 34.4265 52.5569L33.7826 49.1549C33.6558 48.4856 33.028 48.041 32.3524 48.1433C30.7242 48.3896 29.0464 48.5143 27.366 48.5143C26.1159 48.5143 24.8817 48.4446 23.6976 48.307C23.0429 48.2317 22.4329 48.678 22.3106 49.3245L21.6987 52.5569C21.6666 52.7265 21.518 52.8495 21.3454 52.8495H17.5655C17.3929 52.8495 17.2443 52.7264 17.2118 52.5543L16.0924 46.7404C16.0204 46.3658 15.7851 46.0473 15.4466 45.8665C10.3394 43.1401 7.63984 38.585 7.63984 32.6939C7.63984 29.7175 8.29104 27.0855 9.57526 24.8709C10.7737 22.8042 12.524 21.0955 14.7776 19.7919C15.1602 19.5705 15.291 19.0809 15.0697 18.6982C14.8484 18.3155 14.3588 18.185 13.976 18.4061C9.6062 20.9339 6.97061 24.8338 6.24497 29.787V29.7869C6.16795 29.7799 6.09082 29.7732 6.01401 29.7653C6.02798 29.2309 5.9313 28.6916 5.72075 28.1683C5.25637 27.0139 4.30246 26.1807 3.29044 26.0457C2.49294 25.9389 1.734 26.2775 1.20731 26.9734C0.443652 27.9825 0.568154 28.7811 0.806953 29.2733C1.21011 30.104 2.24641 30.6916 3.96612 31.061C3.91886 31.1318 3.86687 31.2029 3.80993 31.2744C2.79383 32.5487 1.59672 32.8305 0.819414 32.857C0.364375 32.8724 0 33.2377 0 33.6931V33.6969C0 34.1461 0.354385 34.5124 0.803086 34.5329C0.860557 34.5356 0.920606 34.537 0.983125 34.537C1.96668 34.537 3.54524 34.1742 5.06183 32.2725C5.30127 31.9724 5.49635 31.6557 5.64631 31.3285C5.79734 31.3456 5.94247 31.3602 6.08147 31.3731C6.08147 31.3728 6.08147 31.3725 6.08158 31.3722C6.0543 31.806 6.03915 32.2461 6.03915 32.6939C6.03915 36.027 6.83375 38.9988 8.40071 41.5272C9.84554 43.8583 11.9142 45.767 14.5512 47.2023L15.6393 52.8544C15.8143 53.7791 16.6244 54.4503 17.5655 54.4503H21.3454C22.2865 54.4503 23.0966 53.7791 23.2716 52.8544L23.8248 49.9317C24.9738 50.0534 26.1633 50.1151 27.3659 50.1151C29.0159 50.1151 30.664 50.0001 32.2702 49.7733L32.8534 52.8547C33.0285 53.7793 33.8385 54.4504 34.7795 54.4504H38.5594C39.5005 54.4504 40.3106 53.7792 40.4857 52.8542L41.6176 46.8611C44.8153 45.1701 47.2257 42.9489 48.7831 40.2573C48.8953 40.0633 49.0682 39.921 49.2697 39.8564L52.8993 38.6938C54.1558 38.291 55 37.1342 55 35.8148V32.0792C55 30.7598 54.1558 29.603 52.8993 29.2005ZM45.2545 19.6875C44.9464 22.3221 44.12 24.5758 43.2896 25.0461C42.3458 25.5808 40.1668 25.684 38.5307 24.4872C36.8928 23.289 36.3476 21.1344 36.954 18.2561C37.0149 17.967 37.2203 17.7169 37.5033 17.5873C41.5106 15.753 43.8209 15.153 44.6792 15.153C44.8088 15.153 44.9052 15.1667 44.9695 15.1918C45.2273 15.4666 45.5655 17.0286 45.2545 19.6875ZM2.24737 28.5743C2.16455 28.4035 2.36006 28.1033 2.48402 27.9393C2.6805 27.6798 2.8615 27.6267 2.99825 27.6267C3.02715 27.6267 3.05411 27.6291 3.07882 27.6324C3.44685 27.6815 3.96247 28.0865 4.23564 28.7655C4.29999 28.9254 4.38356 29.1902 4.40312 29.5204C3.29506 29.2908 2.43418 28.9598 2.24737 28.5743Z" fill="white"/>
<path d="M25.5576 10.5571V7.69281C26.5454 7.76339 26.9123 8.21488 27.2509 8.21488C27.6743 8.21488 27.8718 7.67874 27.8718 7.41062C27.8718 6.71914 26.5171 6.42287 25.5576 6.39462V6.01349C25.5576 5.84419 25.3459 5.68896 25.1343 5.68896C24.8943 5.68896 24.725 5.84419 24.725 6.01349V6.42266C23.3845 6.56381 22.044 7.26936 22.044 9.0473C22.044 10.8535 23.4551 11.3615 24.725 11.813V15.129C23.2857 15.0161 22.9048 14.0283 22.4391 14.0283C22.0863 14.0283 21.79 14.494 21.79 14.8327C21.79 15.5241 22.9753 16.4695 24.725 16.4978V16.9352C24.725 17.1045 24.8944 17.2597 25.1343 17.2597C25.346 17.2597 25.5576 17.1045 25.5576 16.9352V16.4554C27.0816 16.2437 28.1258 15.2842 28.1258 13.5486C28.1258 11.6296 26.7853 11.0086 25.5576 10.5571ZM24.8097 10.2891C24.0618 10.0069 23.4551 9.71063 23.4551 8.90636C23.4551 8.17256 24.0195 7.81979 24.8097 7.72106V10.2891ZM25.4729 15.1007V12.1234C26.1643 12.4197 26.7146 12.8148 26.7146 13.7037C26.7146 14.5082 26.2348 14.9597 25.4729 15.1007Z" fill="white"/>
</g>
<defs>
<clipPath id="clip0_708_204">
<rect width="55" height="55" fill="white"/>
</clipPath>
</defs>
</svg>
