<svg width="67" height="66" viewBox="0 0 67 66" fill="none" xmlns="http://www.w3.org/2000/svg">
<path d="M51.1637 41.6529C50.9288 41.6529 50.6982 41.5672 50.5198 41.3872L44.0112 34.9758C43.6545 34.6243 43.6545 34.0543 44.0112 33.7029C44.368 33.3515 44.9466 33.3515 45.3034 33.7029L51.8119 40.1143C52.1687 40.4658 52.1687 41.0358 51.8119 41.3872C51.6336 41.5629 51.3986 41.6529 51.1637 41.6529Z" fill="white"/>
<path d="M43.2934 56.1386C40.1217 56.1386 37.0458 55.5257 34.1483 54.3215C31.3508 53.1557 28.8405 51.4886 26.6826 49.3629C24.5247 47.2372 22.8323 44.7643 21.6489 42.0086C20.422 39.1543 19.8042 36.1243 19.8042 33C19.8042 29.8757 20.4263 26.8457 21.6489 23.9914C22.8323 21.2357 24.5247 18.7629 26.6826 16.6372C28.8405 14.5115 31.3508 12.8443 34.1483 11.6786C37.0458 10.47 40.1217 9.86145 43.2934 9.86145C46.465 9.86145 49.5409 10.4743 52.4384 11.6786C55.2359 12.8443 57.7462 14.5115 59.9041 16.6372C62.0621 18.7629 63.7545 21.2357 64.9378 23.9914C66.1647 26.8457 66.7825 29.8757 66.7825 33C66.7825 36.1243 66.1604 39.1543 64.9378 42.0086C63.7545 44.7643 62.0621 47.2372 59.9041 49.3629C57.7462 51.4886 55.2359 53.1557 52.4384 54.3215C49.5409 55.5257 46.465 56.1386 43.2934 56.1386ZM43.2934 11.6615C31.3508 11.6615 21.6315 21.2315 21.6315 33C21.6315 44.7643 31.3465 54.3386 43.2934 54.3386C55.2359 54.3386 64.9552 44.7686 64.9552 33C64.9552 21.2357 55.2402 11.6615 43.2934 11.6615Z" fill="white"/>
<path d="M26.87 18.6429H13.3917C12.887 18.6429 12.478 18.24 12.478 17.7429C12.478 17.2458 12.887 16.8429 13.3917 16.8429H26.87C27.3747 16.8429 27.7836 17.2458 27.7836 17.7429C27.7836 18.24 27.3747 18.6429 26.87 18.6429Z" fill="white"/>
<path d="M22.0841 26.2714H7.52252C7.01785 26.2714 6.60889 25.8686 6.60889 25.3714C6.60889 24.8743 7.01785 24.4714 7.52252 24.4714H22.0841C22.5888 24.4714 22.9978 24.8743 22.9978 25.3714C22.9978 25.8686 22.5888 26.2714 22.0841 26.2714Z" fill="white"/>
<path d="M20.7182 33.9H8.94098C8.4363 33.9 8.02734 33.4972 8.02734 33C8.02734 32.5029 8.4363 32.1 8.94098 32.1H20.7225C21.2272 32.1 21.6362 32.5029 21.6362 33C21.6362 33.4972 21.2229 33.9 20.7182 33.9Z" fill="white"/>
<path d="M4.35959 33.9H1.13141C0.626734 33.9 0.217773 33.4972 0.217773 33C0.217773 32.5029 0.626734 32.1 1.13141 32.1H4.35959C4.86427 32.1 5.27323 32.5029 5.27323 33C5.27323 33.4972 4.86427 33.9 4.35959 33.9Z" fill="white"/>
<path d="M22.0841 41.5286H7.52252C7.01785 41.5286 6.60889 41.1257 6.60889 40.6286C6.60889 40.1314 7.01785 39.7286 7.52252 39.7286H22.0841C22.5888 39.7286 22.9978 40.1314 22.9978 40.6286C22.9978 41.1257 22.5888 41.5286 22.0841 41.5286Z" fill="white"/>
<path d="M26.87 49.1572H13.3917C12.887 49.1572 12.478 48.7543 12.478 48.2572C12.478 47.76 12.887 47.3572 13.3917 47.3572H26.87C27.3747 47.3572 27.7836 47.76 27.7836 48.2572C27.7836 48.7543 27.3747 49.1572 26.87 49.1572Z" fill="white"/>
<path d="M43.2936 52.2C40.6615 52.2 38.112 51.6943 35.7061 50.6915C33.3872 49.7229 31.2989 48.3386 29.5108 46.5772C27.7227 44.8158 26.3174 42.7629 25.3342 40.4743C24.3161 38.1086 23.8027 35.5929 23.8027 33C23.8027 30.4072 24.3161 27.8958 25.3342 25.5258C26.3174 23.2415 27.7227 21.1843 29.5108 19.4229C31.2989 17.6615 33.3829 16.2772 35.7061 15.3086C38.1077 14.3058 40.6615 13.8 43.2936 13.8C45.9258 13.8 48.4753 14.3058 50.8812 15.3086C53.2001 16.2772 55.2884 17.6615 57.0765 19.4229C58.8646 21.1843 60.2699 23.2372 61.2531 25.5258C62.2712 27.8915 62.7846 30.4072 62.7846 33C62.7846 35.5929 62.2712 38.1043 61.2531 40.4743C60.2699 42.7586 58.8646 44.8158 57.0765 46.5772C55.2884 48.3386 53.2044 49.7229 50.8812 50.6915C48.4796 51.69 45.9258 52.2 43.2936 52.2ZM43.2936 15.6C33.5569 15.6 25.63 23.4043 25.63 33C25.63 42.5958 33.5525 50.4 43.2936 50.4C53.0347 50.4 60.9573 42.5958 60.9573 33C60.9573 23.4043 53.0347 15.6 43.2936 15.6Z" fill="white"/>
<path d="M43.2934 35.7686C41.7446 35.7686 40.4829 34.5257 40.4829 33C40.4829 31.4743 41.7446 30.2314 43.2934 30.2314C44.8423 30.2314 46.1039 31.4743 46.1039 33C46.1083 34.5257 44.8466 35.7686 43.2934 35.7686ZM43.2934 32.0314C42.7496 32.0314 42.3102 32.4686 42.3102 33C42.3102 33.5314 42.7539 33.9686 43.2934 33.9686C43.8329 33.9686 44.2767 33.5314 44.2767 33C44.2767 32.4686 43.8373 32.0314 43.2934 32.0314Z" fill="white"/>
<path d="M43.2935 32.0443C42.7888 32.0443 42.3799 31.6414 42.3799 31.1443V24.0643C42.3799 23.5672 42.7888 23.1643 43.2935 23.1643C43.7982 23.1643 44.2072 23.5672 44.2072 24.0643V31.1443C44.2072 31.6414 43.7982 32.0443 43.2935 32.0443Z" fill="white"/>
<path d="M43.2935 18.3772C42.7888 18.3772 42.3799 17.9743 42.3799 17.4772V14.7C42.3799 14.2029 42.7888 13.8 43.2935 13.8C43.7982 13.8 44.2072 14.2029 44.2072 14.7V17.4772C44.2072 17.9743 43.7982 18.3772 43.2935 18.3772Z" fill="white"/>
<path d="M32.1516 22.9243C31.9167 22.9243 31.6861 22.8386 31.5077 22.6586L29.5151 20.6957C29.1584 20.3443 29.1584 19.7743 29.5151 19.4229C29.8719 19.0714 30.4505 19.0714 30.8073 19.4229L32.7999 21.3857C33.1566 21.7372 33.1566 22.3072 32.7999 22.6586C32.6215 22.8386 32.3866 22.9243 32.1516 22.9243Z" fill="white"/>
<path d="M27.54 33.9H24.7208C24.2161 33.9 23.8071 33.4972 23.8071 33C23.8071 32.5029 24.2161 32.1 24.7208 32.1H27.54C28.0447 32.1 28.4536 32.5029 28.4536 33C28.4536 33.4972 28.0447 33.9 27.54 33.9Z" fill="white"/>
<path d="M30.159 46.8386C29.9241 46.8386 29.6935 46.7529 29.5151 46.5729C29.1584 46.2215 29.1584 45.6515 29.5151 45.3L31.5077 43.3372C31.8645 42.9858 32.4431 42.9858 32.7999 43.3372C33.1566 43.6886 33.1566 44.2586 32.7999 44.61L30.8073 46.5729C30.6289 46.7529 30.394 46.8386 30.159 46.8386Z" fill="white"/>
<path d="M43.2935 52.2C42.7888 52.2 42.3799 51.7972 42.3799 51.3V48.5229C42.3799 48.0257 42.7888 47.6229 43.2935 47.6229C43.7982 47.6229 44.2072 48.0257 44.2072 48.5229V51.3C44.2072 51.7972 43.7982 52.2 43.2935 52.2Z" fill="white"/>
<path d="M56.428 46.8386C56.193 46.8386 55.9625 46.7529 55.7841 46.5729L53.7915 44.61C53.4347 44.2586 53.4347 43.6886 53.7915 43.3372C54.1482 42.9858 54.7269 42.9858 55.0836 43.3372L57.0762 45.3C57.433 45.6515 57.433 46.2215 57.0762 46.5729C56.8979 46.7529 56.6629 46.8386 56.428 46.8386Z" fill="white"/>
<path d="M61.871 33.9H59.0518C58.5471 33.9 58.1382 33.4972 58.1382 33C58.1382 32.5029 58.5471 32.1 59.0518 32.1H61.871C62.3757 32.1 62.7847 32.5029 62.7847 33C62.7847 33.4972 62.3757 33.9 61.871 33.9Z" fill="white"/>
<path d="M54.4354 22.9243C54.2004 22.9243 53.9699 22.8343 53.7915 22.6586C53.4347 22.3072 53.4347 21.7372 53.7915 21.3857L55.7841 19.4229C56.1408 19.0714 56.7195 19.0714 57.0762 19.4229C57.433 19.7743 57.433 20.3443 57.0762 20.6957L55.0836 22.6586C54.9053 22.8386 54.6703 22.9243 54.4354 22.9243Z" fill="white"/>
</svg>
