<svg width="58" height="58" viewBox="0 0 58 58" fill="none" xmlns="http://www.w3.org/2000/svg">
<g clip-path="url(#clip0_708_233)">
<path d="M28.9999 6.76666C25.9409 6.76666 22.9505 7.67377 20.4071 9.37327C17.8636 11.0728 15.8812 13.4883 14.7105 16.3145C13.5399 19.1407 13.2336 22.2505 13.8304 25.2507C14.4272 28.251 15.9002 31.0069 18.0633 33.1699C20.2263 35.333 22.9822 36.806 25.9825 37.4028C28.9827 37.9996 32.0926 37.6933 34.9187 36.5227C37.7449 35.352 40.1604 33.3696 41.8599 30.8262C43.5594 28.2827 44.4665 25.2923 44.4665 22.2333C44.4617 18.1328 42.8306 14.2016 39.9311 11.3021C37.0316 8.4026 33.1004 6.77152 28.9999 6.76666ZM28.9999 35.7667C26.3232 35.7667 23.7067 34.9729 21.4812 33.4859C19.2556 31.9988 17.521 29.8852 16.4967 27.4123C15.4724 24.9394 15.2044 22.2183 15.7266 19.5931C16.2488 16.9679 17.5377 14.5565 19.4304 12.6638C21.323 10.7711 23.7344 9.48222 26.3597 8.96004C28.9849 8.43785 31.706 8.70585 34.1789 9.73016C36.6518 10.7545 38.7654 12.4891 40.2524 14.7146C41.7395 16.9402 42.5332 19.5567 42.5332 22.2333C42.5294 25.8214 41.1023 29.2614 38.5652 31.7986C36.028 34.3358 32.588 35.7628 28.9999 35.7667Z" fill="white"/>
<path d="M32.7499 16.3164L25.1335 23.9356C24.5739 23.4579 23.8567 23.2051 23.1212 23.2262C22.3857 23.2473 21.6842 23.5407 21.1528 24.0497C20.6091 24.5935 20.3037 25.331 20.3037 26.1C20.3037 26.869 20.6091 27.6065 21.1528 28.1503L23.0861 30.0837C23.6336 30.6208 24.3699 30.9218 25.1369 30.9218C25.9039 30.9218 26.6403 30.6208 27.1877 30.0837L36.8544 20.417C37.3826 19.87 37.6749 19.1375 37.6683 18.3771C37.6617 17.6167 37.3567 16.8894 36.819 16.3517C36.2813 15.814 35.554 15.509 34.7936 15.5024C34.0333 15.4958 33.3007 15.7881 32.7538 16.3164H32.7499ZM35.4836 19.0501L25.817 28.7168C25.6332 28.8932 25.3883 28.9917 25.1335 28.9917C24.8788 28.9917 24.6339 28.8932 24.4501 28.7168L22.5168 26.7835C22.3407 26.6011 22.2432 26.357 22.2454 26.1035C22.2476 25.85 22.3493 25.6076 22.5285 25.4284C22.7078 25.2491 22.9502 25.1475 23.2037 25.1453C23.4571 25.1431 23.7013 25.2405 23.8836 25.4166L24.4501 25.9831C24.6314 26.1643 24.8772 26.2661 25.1335 26.2661C25.3899 26.2661 25.6357 26.1643 25.817 25.9831L34.1168 17.6832C34.2991 17.5072 34.5433 17.4097 34.7967 17.4119C35.0502 17.4141 35.2926 17.5158 35.4719 17.695C35.6511 17.8743 35.7527 18.1167 35.7549 18.3702C35.7571 18.6236 35.6597 18.8678 35.4836 19.0501Z" fill="white"/>
<path d="M49.7639 18.4904L47.7581 17.69C47.29 15.7474 46.5199 13.8904 45.4758 12.1867L46.3245 10.1993C46.4903 9.82924 46.5491 9.42014 46.4941 9.01841C46.439 8.61669 46.2725 8.23844 46.0133 7.92663C45.6604 7.50226 45.2554 7.05663 44.717 6.5037C44.1834 5.98363 43.7368 5.5786 43.323 5.23543C43.0111 4.97294 42.6317 4.80325 42.228 4.74567C41.8244 4.68808 41.4127 4.7449 41.0398 4.90966L39.0513 5.75936C37.346 4.71586 35.4873 3.94669 33.5433 3.47996L32.7409 1.47123C32.5922 1.09641 32.344 0.769302 32.0231 0.525187C31.7022 0.281071 31.3207 0.129214 30.9197 0.085995C29.646 -0.0280953 28.3645 -0.0280953 27.0908 0.085995C26.6875 0.127374 26.3033 0.278211 25.9795 0.522193C25.6558 0.766174 25.405 1.09402 25.2541 1.47026L24.4566 3.47996C22.5141 3.94824 20.6571 4.71837 18.9534 5.76226L16.9649 4.9087C16.5951 4.74286 16.1861 4.68412 15.7845 4.73914C15.383 4.79417 15.0049 4.96075 14.6933 5.21996C14.267 5.5728 13.8233 5.9788 13.2703 6.5153C12.7503 7.0489 12.3443 7.4955 12.003 7.90923C11.7394 8.22079 11.5689 8.60028 11.5109 9.00425C11.453 9.40823 11.51 9.82036 11.6753 10.1935L12.525 12.1819C11.4807 13.8874 10.7099 15.7459 10.2408 17.69L8.23207 18.4933C7.85803 18.6426 7.53186 18.8913 7.28876 19.2124C7.04567 19.5335 6.89487 19.9149 6.85264 20.3154C6.73857 21.5886 6.73857 22.8693 6.85264 24.1425C6.8934 24.5459 7.04399 24.9305 7.28806 25.2543C7.53212 25.5781 7.8603 25.8288 8.23691 25.9791L10.2418 26.7805C10.7111 28.7228 11.4815 30.5797 12.525 32.2837L11.6763 34.2712C11.5112 34.6406 11.4527 35.0489 11.5075 35.4499C11.5624 35.8508 11.7283 36.2284 11.9866 36.54C12.3394 36.9663 12.7454 37.41 13.2829 37.9629C13.8155 38.483 14.2621 38.889 14.6759 39.2312C14.7097 39.2602 14.7513 39.2747 14.787 39.3017L9.90731 50.5267C9.71639 50.9797 9.64052 51.4729 9.68647 51.9623C9.73243 52.4517 9.89877 52.9222 10.1707 53.3317C10.4426 53.7412 10.8116 54.0771 11.2448 54.3094C11.6781 54.5417 12.162 54.6632 12.6536 54.663H16.8006C16.8532 54.6624 16.9055 54.6723 16.9543 54.692C17.003 54.7118 17.0474 54.741 17.0848 54.7781L19.4425 57.13C19.7855 57.4727 20.2068 57.7267 20.67 57.8701C21.1333 58.0135 21.6244 58.0419 22.1011 57.9529C22.5777 57.8639 23.0255 57.6602 23.4058 57.3593C23.7861 57.0585 24.0873 56.6695 24.2836 56.2261L28.9999 45.8364L33.7115 56.2087C33.905 56.6546 34.2047 57.0464 34.5845 57.3497C34.9644 57.653 35.4127 57.8587 35.8903 57.9487C36.0726 57.9833 36.2578 58.0005 36.4433 58C37.2339 58.0008 37.9925 57.6879 38.5525 57.13L40.9141 54.7781C40.9897 54.705 41.0912 54.6647 41.1964 54.6659H45.3434C45.8359 54.6661 46.3207 54.5442 46.7545 54.3111C47.1884 54.0781 47.5577 53.7411 47.8294 53.3303C48.1011 52.9195 48.2667 52.4478 48.3115 51.9574C48.3562 51.4669 48.2787 50.9731 48.0858 50.5199L43.2032 39.3085C43.236 39.2834 43.2766 39.2698 43.3085 39.2428C43.7329 38.8899 44.1785 38.4849 44.7315 37.9465C45.2515 37.4129 45.6566 36.9663 45.9997 36.5525C46.2628 36.2409 46.4329 35.8615 46.4905 35.4577C46.5481 35.0539 46.491 34.6421 46.3255 34.2693L45.4758 32.2808C46.52 30.5769 47.2901 28.7195 47.7581 26.7766L49.7668 25.9743C50.1409 25.8248 50.4671 25.5762 50.7103 25.2551C50.9536 24.934 51.1046 24.5527 51.1472 24.1521C51.2087 23.5144 51.2374 22.874 51.2333 22.2333C51.2374 21.5942 51.2087 20.9554 51.1472 20.3193C51.1046 19.9175 50.9533 19.535 50.7096 19.2127C50.4659 18.8905 50.1389 18.6408 49.7639 18.4904ZM22.5165 55.4354C22.4479 55.5925 22.3419 55.7304 22.2077 55.8372C22.0736 55.944 21.9154 56.0163 21.7469 56.048C21.5784 56.0796 21.4047 56.0696 21.241 56.0187C21.0772 55.9679 20.9284 55.8778 20.8074 55.7563L18.4517 53.4102C18.012 52.9758 17.4186 52.7327 16.8006 52.7336H12.6536C12.481 52.7344 12.3109 52.6919 12.1589 52.61C12.0069 52.5281 11.8779 52.4094 11.7836 52.2647C11.6875 52.1238 11.6282 51.9611 11.6113 51.7913C11.5944 51.6216 11.6204 51.4503 11.6869 51.2932L16.7639 39.614C16.8306 39.5927 16.8982 39.5869 16.964 39.5589L18.9524 38.7092C20.6565 39.7532 22.5138 40.5233 24.4566 40.9915L25.2589 43.0012C25.4087 43.3749 25.6575 43.7008 25.9785 43.9438C26.2996 44.1869 26.6807 44.3379 27.0811 44.3806C27.2232 44.3951 27.3769 44.4019 27.5248 44.4125L22.5165 55.4354ZM46.312 51.2787C46.3789 51.4379 46.4053 51.6111 46.389 51.7829C46.3726 51.9547 46.3139 52.1198 46.2182 52.2634C46.1224 52.407 45.9926 52.5247 45.8403 52.6059C45.688 52.6871 45.5179 52.7293 45.3453 52.7287H41.1993C40.5839 52.7295 39.9935 52.9726 39.5559 53.4054L37.1953 55.7563C37.0732 55.878 36.9231 55.9679 36.7581 56.018C36.5932 56.0682 36.4185 56.0771 36.2493 56.044C36.0801 56.0109 35.9216 55.9367 35.7877 55.8281C35.6539 55.7195 35.5487 55.5797 35.4814 55.4209L30.4809 44.4106C30.6249 44.3999 30.7709 44.3941 30.9139 44.3796C31.3172 44.3383 31.7015 44.1874 32.0252 43.9434C32.3489 43.6995 32.5997 43.3716 32.7506 42.9954L33.552 40.9895C35.4945 40.5214 37.3515 39.7513 39.0552 38.7072L41.0427 39.556C41.1045 39.583 41.1703 39.5879 41.236 39.6091L46.312 51.2787ZM49.2226 23.9733C49.2139 24.0206 49.1931 24.0648 49.1623 24.1018C49.1315 24.1387 49.0917 24.167 49.0467 24.184L46.5701 25.1739C46.4226 25.2332 46.2919 25.3277 46.1895 25.4492C46.087 25.5707 46.0159 25.7155 45.9823 25.8709C45.5428 27.9352 44.7276 29.9012 43.5773 31.6709C43.4911 31.8039 43.439 31.9561 43.4255 32.1141C43.412 32.272 43.4376 32.4309 43.4999 32.5766L44.5488 35.0329C44.5704 35.0775 44.5793 35.1273 44.5743 35.1766C44.5694 35.2259 44.5508 35.2729 44.5207 35.3123C44.2037 35.699 43.8305 36.1069 43.3607 36.5835C42.8658 37.0668 42.4559 37.4399 42.0606 37.7657C42.0213 37.7923 41.9756 37.808 41.9282 37.8113C41.8808 37.8145 41.8334 37.8051 41.7909 37.7841L39.3433 36.7333C39.1976 36.6712 39.0389 36.6459 38.8811 36.6596C38.7233 36.6732 38.5713 36.7254 38.4385 36.8116C36.6688 37.9619 34.7028 38.7771 32.6385 39.2167C32.4831 39.2502 32.3384 39.3213 32.2168 39.4238C32.0953 39.5263 32.0008 39.6569 31.9415 39.8044L30.9526 42.2781C30.9348 42.3253 30.9048 42.3668 30.8655 42.3985C30.8262 42.4301 30.7792 42.4506 30.7293 42.4579C30.1564 42.5121 29.5812 42.5372 29.0057 42.5333H28.9941C28.4161 42.5367 27.8383 42.5109 27.2628 42.456C27.2156 42.4472 27.1714 42.4264 27.1345 42.3956C27.0976 42.3647 27.0692 42.325 27.0521 42.28L26.0622 39.8034C26.0035 39.6558 25.9092 39.525 25.7878 39.4224C25.6664 39.3199 25.5216 39.2489 25.3662 39.2157C23.3017 38.7767 21.3356 37.9614 19.5662 36.8106C19.4097 36.7091 19.227 36.655 19.0404 36.655C18.9084 36.6545 18.7778 36.6811 18.6566 36.7333L16.2003 37.7821C16.1561 37.8045 16.1063 37.8137 16.057 37.8088C16.0077 37.8038 15.9608 37.7848 15.9219 37.7541C15.5352 37.4361 15.1273 37.0629 14.6507 36.5941C14.1674 36.1001 13.7962 35.6912 13.4675 35.2939C13.441 35.2547 13.4254 35.2092 13.4223 35.1619C13.4192 35.1147 13.4288 35.0675 13.4501 35.0252L14.4999 32.5766C14.562 32.4309 14.5873 32.2722 14.5737 32.1145C14.56 31.9567 14.5078 31.8047 14.4216 31.6718C13.2711 29.9022 12.4555 27.9362 12.0156 25.8718C11.9826 25.7164 11.9118 25.5715 11.8095 25.4499C11.7071 25.3283 11.5764 25.2339 11.4288 25.1749L8.95611 24.1831C8.90936 24.1646 8.8682 24.1343 8.83668 24.0952C8.80516 24.056 8.78436 24.0094 8.77631 23.9598C8.72507 23.4465 8.69994 22.8819 8.69994 22.2333C8.69994 21.5847 8.72507 21.0201 8.77727 20.4933C8.78631 20.4462 8.80721 20.4023 8.838 20.3656C8.86879 20.3289 8.90844 20.3006 8.95321 20.2835L11.4298 19.2937C11.5774 19.2347 11.7081 19.1402 11.8104 19.0186C11.9128 18.8971 11.9836 18.7522 12.0166 18.5967C12.4565 16.5323 13.272 14.5663 14.4226 12.7967C14.5089 12.6635 14.5612 12.5111 14.5746 12.353C14.5881 12.1949 14.5625 12.0358 14.4999 11.89L13.453 9.43753C13.4312 9.39281 13.4223 9.3429 13.4272 9.29338C13.4322 9.24386 13.4508 9.1967 13.4811 9.1572C13.7991 8.77053 14.1713 8.36356 14.6411 7.88603C15.135 7.4027 15.5449 7.0315 15.9422 6.7038C15.981 6.67683 16.0265 6.66096 16.0737 6.65789C16.1209 6.65482 16.168 6.66468 16.21 6.6864L18.6566 7.7333C18.8024 7.79552 18.9613 7.82093 19.1193 7.80727C19.2772 7.79362 19.4294 7.74132 19.5624 7.655C21.3318 6.50424 23.2979 5.68897 25.3624 5.24993C25.5178 5.21671 25.6625 5.1457 25.7839 5.04319C25.9053 4.94067 25.9996 4.80982 26.0584 4.6622L27.0463 2.18946C27.0642 2.14208 27.0944 2.10034 27.1338 2.06856C27.1733 2.03678 27.2205 2.01611 27.2706 2.0087C28.4225 1.90623 29.5812 1.90623 30.7332 2.0087C30.7805 2.0174 30.8247 2.03817 30.8616 2.06899C30.8986 2.09981 30.9269 2.13964 30.9439 2.18463L31.9338 4.66123C31.9931 4.80869 32.0876 4.93937 32.2091 5.04183C32.3306 5.14429 32.4754 5.21541 32.6307 5.24896C34.6951 5.68851 36.6611 6.50375 38.4307 7.65403C38.5644 7.74166 38.7178 7.79477 38.877 7.80861C39.0363 7.82244 39.1965 7.79656 39.3433 7.7333L41.7996 6.68446C41.8442 6.66282 41.8939 6.65398 41.9432 6.65893C41.9926 6.66388 42.0395 6.68242 42.0789 6.7125C42.4656 7.02956 42.8735 7.4027 43.3501 7.8725C43.8334 8.36743 44.2066 8.7773 44.5323 9.17266C44.5594 9.21179 44.5754 9.2575 44.5787 9.30498C44.5819 9.35246 44.5723 9.39993 44.5507 9.44236L43.4999 11.89C43.4379 12.0357 43.4126 12.1944 43.4262 12.3521C43.4399 12.5099 43.4921 12.6619 43.5782 12.7948C44.7285 14.5644 45.5438 16.5304 45.9833 18.5948C46.0169 18.7501 46.088 18.8949 46.1904 19.0164C46.2929 19.1379 46.4236 19.2324 46.571 19.2917L49.0447 20.2806C49.0903 20.2974 49.1308 20.3257 49.1621 20.3628C49.1935 20.3999 49.2147 20.4446 49.2236 20.4923V20.5039C49.2786 21.0787 49.304 21.6559 49.2999 22.2333C49.3039 22.8142 49.2781 23.395 49.2226 23.9733Z" fill="white"/>
</g>
<defs>
<clipPath id="clip0_708_233">
<rect width="58" height="58" fill="white"/>
</clipPath>
</defs>
</svg>
