<svg width="63" height="62" viewBox="0 0 63 62" fill="none" xmlns="http://www.w3.org/2000/svg">
<path d="M28.8352 40.4038C28.9266 40.4937 29.0351 40.5651 29.1546 40.6138C29.274 40.6625 29.402 40.6875 29.5313 40.6875C29.6606 40.6875 29.7886 40.6625 29.908 40.6138C30.0274 40.5651 30.136 40.4937 30.2274 40.4038L44.0086 26.8413C44.1 26.7513 44.1725 26.6445 44.222 26.527C44.2715 26.4094 44.2969 26.2834 44.2969 26.1562C44.2969 26.029 44.2715 25.903 44.222 25.7855C44.1725 25.6679 44.1 25.5612 44.0086 25.4712L41.0555 22.5649C40.9641 22.475 40.8556 22.4036 40.7361 22.3549C40.6167 22.3062 40.4887 22.2812 40.3594 22.2812C40.2301 22.2812 40.1021 22.3062 39.9827 22.3549C39.8633 22.4036 39.7547 22.475 39.6633 22.5649L29.5313 32.5362L26.2899 29.3462C26.1985 29.2562 26.0899 29.1849 25.9705 29.1362C25.8511 29.0875 25.7231 29.0624 25.5938 29.0624C25.4645 29.0624 25.3365 29.0875 25.2171 29.1362C25.0976 29.1849 24.9891 29.2562 24.8977 29.3462L21.9446 32.2524C21.8532 32.3424 21.7807 32.4492 21.7312 32.5667C21.6817 32.6843 21.6562 32.8103 21.6562 32.9375C21.6562 33.0647 21.6817 33.1907 21.7312 33.3082C21.7807 33.4257 21.8532 33.5325 21.9446 33.6225L28.8352 40.4038ZM25.5938 31.4013L28.8352 34.5913C28.9266 34.6812 29.0351 34.7526 29.1546 34.8013C29.274 34.85 29.402 34.875 29.5313 34.875C29.6606 34.875 29.7886 34.85 29.908 34.8013C30.0274 34.7526 30.136 34.6812 30.2274 34.5913L40.3594 24.62L41.9204 26.1562L29.5313 38.3487L24.0328 32.9375L25.5938 31.4013Z" fill="white"/>
<path d="M19.4762 52.8695C25.2759 58.7012 31.048 59.9889 31.2909 60.0408C31.4288 60.0704 31.5715 60.0704 31.7093 60.0408C31.9522 59.9889 37.7243 58.7012 43.524 52.8695C46.9057 49.4692 49.5971 45.2164 51.5234 40.23C53.9131 34.0425 55.125 26.7001 55.125 18.4062C55.125 18.25 55.0866 18.0961 55.013 17.9576C54.9395 17.8191 54.833 17.7002 54.7027 17.611L32.0621 2.11102C31.8971 1.99809 31.701 1.93756 31.5 1.93756C31.299 1.93756 31.1029 1.99809 30.9379 2.11102L8.2973 17.611C8.16696 17.7002 8.06049 17.8191 7.98696 17.9576C7.91342 18.0961 7.87501 18.25 7.875 18.4062C7.875 26.7001 9.08689 34.0425 11.4768 40.2295C13.4031 45.2164 16.0945 49.4687 19.4762 52.8695ZM31.5 4.0863L53.1547 18.9113C53.107 26.7219 51.9511 33.6298 49.7172 39.452C47.9026 44.181 45.3761 48.2084 42.2075 51.4222C37.4099 56.2884 32.5484 57.8099 31.4985 58.0945C30.4513 57.8143 25.6715 56.3287 20.8831 51.5139C17.6922 48.3049 15.1466 44.2771 13.3171 39.5411C11.0606 33.6996 9.89297 26.7617 9.84535 18.9113L31.5 4.0863Z" fill="white"/>
<path d="M22.5602 49.0348C25.9867 52.6434 29.41 54.273 31.1456 54.9232C31.3723 55.0081 31.623 55.0076 31.8494 54.9219C33.4954 54.298 36.7438 52.7617 40.0064 49.481C42.9116 46.5606 45.2385 42.8682 46.9228 38.5078C48.8546 33.5067 49.9448 27.5957 50.1625 20.9404C50.1677 20.779 50.1319 20.6188 50.0582 20.4744C49.9846 20.3301 49.8754 20.2062 49.7407 20.1139L32.0623 8.01147C31.8973 7.89854 31.7011 7.83801 31.5002 7.83801C31.2992 7.83801 31.1031 7.89854 30.9381 8.01147L13.2597 20.1143C13.125 20.2065 13.0158 20.3305 12.9421 20.4748C12.8685 20.6191 12.8326 20.7793 12.8379 20.9408C13.0492 27.4002 14.0827 33.1617 15.9095 38.0651C17.5227 42.3949 19.7603 46.0858 22.5602 49.0348ZM31.5002 9.98687L48.1756 21.4031C47.9266 27.629 46.8865 33.1492 45.0825 37.8198C43.4952 41.9289 41.3139 45.3964 38.5995 48.1258C35.8174 50.9231 33.0722 52.3325 31.4938 52.9754C29.8344 52.3054 26.9338 50.8032 23.9988 47.7119C21.3796 44.9534 19.28 41.4834 17.7579 37.3981C16.0528 32.8208 15.0665 27.442 14.8247 21.4031L31.5002 9.98687Z" fill="white"/>
</svg>
