<svg width="32" height="32" viewBox="0 0 32 32" fill="none" xmlns="http://www.w3.org/2000/svg">
<path fill-rule="evenodd" clip-rule="evenodd" d="M23.6333 11.9655C23.744 11.6015 23.6333 11.3335 23.1033 11.3335H21.3533C20.908 11.3335 20.7027 11.5648 20.5913 11.8202C20.5913 11.8202 19.7013 13.9508 18.4407 15.3348C18.0327 15.7362 17.8473 15.8635 17.6247 15.8635C17.5133 15.8635 17.346 15.7362 17.346 15.3715V11.9655C17.346 11.5282 17.2233 11.3335 16.8527 11.3335H14.1007C13.8227 11.3335 13.6553 11.5362 13.6553 11.7288C13.6553 12.1428 14.286 12.2388 14.3507 13.4042V15.9362C14.3507 16.4915 14.2487 16.5922 14.026 16.5922C13.4327 16.5922 11.9893 14.4515 11.1327 12.0022C10.9667 11.5255 10.7987 11.3335 10.3513 11.3335H8.6C8.1 11.3335 8 11.5648 8 11.8202C8 12.2748 8.59333 14.5335 10.7633 17.5208C12.21 19.5608 14.2467 20.6668 16.102 20.6668C17.2147 20.6668 17.352 20.4215 17.352 19.9982V18.4562C17.352 17.9648 17.4573 17.8668 17.81 17.8668C18.07 17.8668 18.5147 17.9948 19.5533 18.9782C20.74 20.1442 20.9353 20.6668 21.6033 20.6668H23.3533C23.8533 20.6668 24.104 20.4215 23.96 19.9362C23.8013 19.4535 23.2347 18.7528 22.4833 17.9215C22.0753 17.4482 21.4633 16.9382 21.2773 16.6828C21.018 16.3555 21.092 16.2095 21.2773 15.9182C21.2773 15.9182 23.4107 12.9675 23.6327 11.9655H23.6333Z" fill="black"/>
<rect x="0.25" y="0.25" width="31.5" height="31.5" rx="15.75" stroke="black" stroke-width="0.5"/>
</svg>
