<svg width="32" height="33" viewBox="0 0 32 33" fill="none" xmlns="http://www.w3.org/2000/svg">
<path d="M21.8759 9.5582C21.479 9.19257 19.8728 8.02695 16.2915 8.01132C16.2915 8.01132 12.0697 7.7582 10.0134 9.6457C8.86966 10.7894 8.46654 12.4676 8.42279 14.5457C8.37904 16.6238 8.32591 20.5176 12.079 21.5738H12.0822L12.079 23.1863C12.079 23.1863 12.054 23.8394 12.4853 23.9707C13.004 24.1332 13.3103 23.6363 13.8072 23.1019C14.079 22.8082 14.454 22.3769 14.7384 22.0488C17.3072 22.2644 19.279 21.7707 19.504 21.6988C20.0228 21.5301 22.9572 21.1551 23.4322 17.2613C23.9259 13.2426 23.1947 10.7051 21.8759 9.5582ZM22.3103 16.9676C21.9072 20.2176 19.529 20.4238 19.0915 20.5644C18.904 20.6238 17.1697 21.0551 14.9915 20.9144C14.9915 20.9144 13.3665 22.8738 12.8603 23.3832C12.6947 23.5488 12.5134 23.5332 12.5165 23.2051C12.5165 22.9894 12.529 20.5269 12.529 20.5269C12.5259 20.5269 12.5259 20.5269 12.529 20.5269C9.34778 19.6457 9.53529 16.3301 9.56966 14.5957C9.60404 12.8613 9.93216 11.4394 10.9009 10.4832C12.6415 8.90507 16.2259 9.13945 16.2259 9.13945C19.254 9.15195 20.704 10.0644 21.0415 10.3707C22.1572 11.3269 22.7259 13.6144 22.3103 16.9676ZM17.9665 14.4426C17.979 14.7113 17.5759 14.7301 17.5634 14.4613C17.529 13.7738 17.2072 13.4394 16.5447 13.4019C16.2759 13.3863 16.3009 12.9832 16.5665 12.9988C17.4384 13.0457 17.9228 13.5457 17.9665 14.4426ZM18.6009 14.7957C18.6322 13.4707 17.804 12.4332 16.2322 12.3176C15.9665 12.2988 15.9947 11.8957 16.2603 11.9144C18.0728 12.0457 19.0384 13.2926 19.004 14.8051C19.0009 15.0738 18.5947 15.0613 18.6009 14.7957ZM20.0697 15.2144C20.0728 15.4832 19.6665 15.4863 19.6665 15.2176C19.6478 12.6707 17.9509 11.2832 15.8915 11.2676C15.6259 11.2644 15.6259 10.8644 15.8915 10.8644C18.1947 10.8801 20.0478 12.4707 20.0697 15.2144ZM19.7165 18.2801V18.2863C19.379 18.8801 18.7478 19.5363 18.0978 19.3269L18.0915 19.3176C17.4322 19.1332 15.879 18.3332 14.8978 17.5519C14.3915 17.1519 13.929 16.6801 13.5728 16.2269C13.2509 15.8238 12.9259 15.3457 12.6103 14.7707C11.9447 13.5676 11.7978 13.0301 11.7978 13.0301C11.5884 12.3801 12.2415 11.7488 12.8384 11.4113H12.8447C13.1322 11.2613 13.4072 11.3113 13.5915 11.5332C13.5915 11.5332 13.979 11.9957 14.1447 12.2238C14.3009 12.4363 14.5103 12.7769 14.6197 12.9676C14.8103 13.3082 14.6915 13.6551 14.504 13.7988L14.129 14.0988C13.9384 14.2519 13.9634 14.5363 13.9634 14.5363C13.9634 14.5363 14.5197 16.6394 16.5978 17.1707C16.5978 17.1707 16.8822 17.1957 17.0353 17.0051L17.3353 16.6301C17.479 16.4426 17.8259 16.3238 18.1665 16.5144C18.6259 16.7738 19.2103 17.1769 19.5978 17.5426C19.8165 17.7207 19.8665 17.9926 19.7165 18.2801Z" fill="white"/>
<rect x="0.25" y="0.25" width="31.5" height="31.502" rx="15.75" stroke="white" stroke-width="0.5"/>
</svg>
