<svg width="32" height="32" viewBox="0 0 32 32" fill="none" xmlns="http://www.w3.org/2000/svg">
<path fill-rule="evenodd" clip-rule="evenodd" d="M23.6333 11.9653C23.744 11.6013 23.6333 11.3333 23.1033 11.3333H21.3533C20.908 11.3333 20.7027 11.5647 20.5913 11.82C20.5913 11.82 19.7013 13.9507 18.4407 15.3347C18.0327 15.736 17.8473 15.8633 17.6247 15.8633C17.5133 15.8633 17.346 15.736 17.346 15.3713V11.9653C17.346 11.528 17.2233 11.3333 16.8527 11.3333H14.1007C13.8227 11.3333 13.6553 11.536 13.6553 11.7287C13.6553 12.1427 14.286 12.2387 14.3507 13.404V15.936C14.3507 16.4913 14.2487 16.592 14.026 16.592C13.4327 16.592 11.9893 14.4513 11.1327 12.002C10.9667 11.5253 10.7987 11.3333 10.3513 11.3333H8.6C8.1 11.3333 8 11.5647 8 11.82C8 12.2747 8.59333 14.5333 10.7633 17.5207C12.21 19.5607 14.2467 20.6667 16.102 20.6667C17.2147 20.6667 17.352 20.4213 17.352 19.998V18.456C17.352 17.9647 17.4573 17.8667 17.81 17.8667C18.07 17.8667 18.5147 17.9947 19.5533 18.978C20.74 20.144 20.9353 20.6667 21.6033 20.6667H23.3533C23.8533 20.6667 24.104 20.4213 23.96 19.936C23.8013 19.4533 23.2347 18.7527 22.4833 17.9213C22.0753 17.448 21.4633 16.938 21.2773 16.6827C21.018 16.3553 21.092 16.2093 21.2773 15.918C21.2773 15.918 23.4107 12.9673 23.6327 11.9653H23.6333Z" fill="white"/>
<rect x="0.25" y="0.25" width="31.5" height="31.5" rx="15.75" stroke="white" stroke-width="0.5"/>
</svg>
