<svg width="11" height="19" viewBox="0 0 11 19" fill="none" xmlns="http://www.w3.org/2000/svg">
<path d="M8.70001 18.6251L0.275014 10.225C0.175014 10.125 0.104014 10.0167 0.0620139 9.90005C0.0200139 9.78338 -0.000652722 9.65838 1.39684e-05 9.52505C1.39917e-05 9.39172 0.021014 9.26672 0.063014 9.15005C0.105014 9.03338 0.175681 8.92505 0.275014 8.82505L8.70002 0.40005C8.93335 0.166717 9.22502 0.0500504 9.57502 0.0500505C9.92502 0.0500506 10.225 0.175051 10.475 0.425051C10.725 0.675051 10.85 0.966717 10.85 1.30005C10.85 1.63338 10.725 1.92505 10.475 2.17505L3.12501 9.52505L10.475 16.8751C10.7083 17.1084 10.825 17.3961 10.825 17.7381C10.825 18.08 10.7 18.3757 10.45 18.6251C10.2 18.8751 9.90835 19.0001 9.57501 19.0001C9.24168 19.0001 8.95001 18.8751 8.70001 18.6251Z" fill="white"/>
</svg>
