<svg width="25" height="25" viewBox="0 0 25 25" fill="none" xmlns="http://www.w3.org/2000/svg">
<path d="M24.287 17.6659L18.8182 15.3221C18.5846 15.2225 18.3249 15.2015 18.0783 15.2623C17.8318 15.3231 17.6116 15.4623 17.451 15.659L15.0291 18.618C11.2281 16.8259 8.16919 13.767 6.37706 9.96604L9.3361 7.54412C9.53321 7.38381 9.67272 7.16364 9.73352 6.91694C9.79431 6.67025 9.77307 6.41046 9.67302 6.17691L7.32923 0.708066C7.21942 0.456308 7.0252 0.250756 6.78007 0.126854C6.53494 0.00295179 6.25426 -0.031534 5.98643 0.0293429L0.908219 1.20124C0.649996 1.26087 0.419609 1.40626 0.25466 1.61369C0.0897111 1.82112 -5.94839e-05 2.07833 2.95718e-08 2.34335C2.95718e-08 14.868 10.1515 25 22.6566 25C22.9217 25.0002 23.1791 24.9104 23.3866 24.7455C23.5941 24.5805 23.7396 24.3501 23.7992 24.0918L24.9711 19.0136C25.0316 18.7444 24.9964 18.4626 24.8715 18.2167C24.7467 17.9707 24.54 17.7759 24.287 17.6659Z" fill="white"/>
</svg>
