<svg width="11" height="19" viewBox="0 0 11 19" fill="none" xmlns="http://www.w3.org/2000/svg">
<path d="M2.15008 0.37495L10.5751 8.77495C10.6751 8.87495 10.7461 8.98328 10.7881 9.09995C10.8301 9.21662 10.8507 9.34162 10.8501 9.47495C10.8501 9.60828 10.8291 9.73328 10.7871 9.84995C10.7451 9.96662 10.6744 10.075 10.5751 10.175L2.15008 18.6C1.91675 18.8333 1.62508 18.95 1.27508 18.95C0.925081 18.95 0.625082 18.825 0.375082 18.575C0.125082 18.325 8.20961e-05 18.0333 8.21253e-05 17.7C8.21544e-05 17.3666 0.125082 17.075 0.375082 16.825L7.72508 9.47495L0.375083 2.12495C0.14175 1.89162 0.0250832 1.60395 0.0250832 1.26195C0.0250832 0.919951 0.150083 0.624282 0.400083 0.374949C0.650083 0.12495 0.94175 -5.04573e-05 1.27508 -5.04281e-05C1.60842 -5.0399e-05 1.90008 0.12495 2.15008 0.37495Z" fill="white"/>
</svg>
